<svg id="Layer_1" data-name="Layer 1" xmlns="http://www.w3.org/2000/svg" viewBox="0 0 146.5 93"><title>hy-logo-text</title><path id="Fill-1" d="M4.28,64.82a5,5,0,0,0,.38,1.11,3.61,3.61,0,0,0,.7,1,4,4,0,0,0,1.34.87,4.25,4.25,0,0,0,1.56.31,4.13,4.13,0,0,0,1.51-.27,3.64,3.64,0,0,0,2-1.86,4.08,4.08,0,0,0,.37-1.4v0h-.88v0A3,3,0,0,1,11,65.65a2.85,2.85,0,0,1-.63.86,2.72,2.72,0,0,1-.93.56,3.38,3.38,0,0,1-1.17.19A3.06,3.06,0,0,1,6,66.34a3,3,0,0,1-.57-.84,4.94,4.94,0,0,1-.31-1,6,6,0,0,1-.13-1c0-.34,0-.68,0-1s0-.67,0-1a6,6,0,0,1,.12-1,4.76,4.76,0,0,1,.31-1A2.82,2.82,0,0,1,6,58.59a3.3,3.3,0,0,1,1-.68,3.23,3.23,0,0,1,1.29-.24,3.16,3.16,0,0,1,1.17.2,2.7,2.7,0,0,1,.93.55,2.78,2.78,0,0,1,.63.87,3,3,0,0,1,.29,1.08v0h.88v0A4,4,0,0,0,11.79,59,3.69,3.69,0,0,0,11,57.86a3.8,3.8,0,0,0-1.2-.75,4.35,4.35,0,0,0-1.51-.26,4.24,4.24,0,0,0-1.56.3A4.05,4.05,0,0,0,5.36,58a3.42,3.42,0,0,0-.7,1,4.7,4.7,0,0,0-.38,1.11,7.62,7.62,0,0,0-.16,1.18c0,.39,0,.78,0,1.17s0,.78,0,1.18A7.62,7.62,0,0,0,4.28,64.82Z"/><path id="Fill-3" d="M16.85,67.3a2.38,2.38,0,0,1-1-.19,2.52,2.52,0,0,1-.72-.48,2.63,2.63,0,0,1-.68-1.18,5.81,5.81,0,0,1,0-2.79,2.6,2.6,0,0,1,.68-1.17,2.36,2.36,0,0,1,.72-.49,2.38,2.38,0,0,1,1-.18,2.35,2.35,0,0,1,1,.18,2.24,2.24,0,0,1,.72.49,2.71,2.71,0,0,1,.69,1.17,5.78,5.78,0,0,1,.16,1.4,5.64,5.64,0,0,1-.16,1.39,2.69,2.69,0,0,1-.69,1.18,2.39,2.39,0,0,1-.72.48,2.35,2.35,0,0,1-1,.19M20,65.8a5.81,5.81,0,0,0,.24-1.74A5.88,5.88,0,0,0,20,62.31a3.37,3.37,0,0,0-1.82-2,3.18,3.18,0,0,0-1.3-.26,3.09,3.09,0,0,0-1.29.26,3.39,3.39,0,0,0-1,.66,3.53,3.53,0,0,0-.86,1.36,5.88,5.88,0,0,0-.24,1.75,5.81,5.81,0,0,0,.24,1.74,3.49,3.49,0,0,0,.86,1.37,3.45,3.45,0,0,0,1,.66,3.09,3.09,0,0,0,1.29.26,3.18,3.18,0,0,0,1.3-.26,3.77,3.77,0,0,0,1-.66A3.47,3.47,0,0,0,20,65.8"/><path id="Fill-5" d="M23.29,68a2.42,2.42,0,0,0,.42,0l.28-.06h0v-.71h0l-.29,0h-.36A.69.69,0,0,1,22.7,67a1.28,1.28,0,0,1-.15-.65V56.85h-.82v9.49a1.69,1.69,0,0,0,.41,1.25,1.6,1.6,0,0,0,1.15.39"/><path id="Fill-7" d="M27.58,67.89h0v-.71h0l-.29,0h-.36a.69.69,0,0,1-.63-.24,1.28,1.28,0,0,1-.15-.65V56.85h-.82v9.49a1.69,1.69,0,0,0,.41,1.25,1.61,1.61,0,0,0,1.16.39,2.37,2.37,0,0,0,.41,0l.28-.06"/><path id="Fill-9" d="M30.48,61a2.44,2.44,0,0,1,1.07-.22,2.29,2.29,0,0,1,1,.23,2.23,2.23,0,0,1,.78.61,2.58,2.58,0,0,1,.49.87,3.41,3.41,0,0,1,.18,1H29a3.3,3.3,0,0,1,.19-1,2.7,2.7,0,0,1,.51-.87,2.51,2.51,0,0,1,.8-.6m3.51.15a3.11,3.11,0,0,0-1-.82,3,3,0,0,0-1.4-.31,3.16,3.16,0,0,0-2.64,1.33,3.45,3.45,0,0,0-.6,1.31,6.57,6.57,0,0,0-.16,1.42,4.9,4.9,0,0,0,.26,1.61,4,4,0,0,0,.73,1.3,3.5,3.5,0,0,0,1,.78,3.19,3.19,0,0,0,1.44.31,3.1,3.1,0,0,0,1.23-.24,3.21,3.21,0,0,0,1-.65,3.65,3.65,0,0,0,.56-.72,2.9,2.9,0,0,0,.31-.9v0h-.85v0a2,2,0,0,1-.22.6,2.35,2.35,0,0,1-.36.47,2.2,2.2,0,0,1-1.66.66,2.54,2.54,0,0,1-1.08-.21,2.44,2.44,0,0,1-.77-.59,3.37,3.37,0,0,1-.57-1A4.07,4.07,0,0,1,29,64.26h5.88l0-.52a4.31,4.31,0,0,0-.23-1.39A3.7,3.7,0,0,0,34,61.16"/><path id="Fill-11" d="M40.12,70.59l-.62,0-.61,0a3.21,3.21,0,0,1-.61-.09,2.7,2.7,0,0,1-.57-.18,1.38,1.38,0,0,1-.47-.31,1.35,1.35,0,0,1-.3-.4,1.33,1.33,0,0,1-.11-.54,1.41,1.41,0,0,1,.38-1,1.91,1.91,0,0,1,.87-.51h2a2.48,2.48,0,0,1,1.84.56,1.56,1.56,0,0,1,.27.4,1.35,1.35,0,0,1,.1.53,1.19,1.19,0,0,1-.12.54,1.3,1.3,0,0,1-.28.4,1.71,1.71,0,0,1-.51.35,2.58,2.58,0,0,1-.63.2,4,4,0,0,1-.67.09m-.82-9.83a2.54,2.54,0,0,1,.83.14,1.94,1.94,0,0,1,.67.39,1.87,1.87,0,0,1,.45.62,2,2,0,0,1,0,1.62,1.73,1.73,0,0,1-.45.61,1.92,1.92,0,0,1-.67.38,2.93,2.93,0,0,1-1.66,0,1.92,1.92,0,0,1-.67-.38,1.6,1.6,0,0,1-.44-.61,1.92,1.92,0,0,1-.16-.81,1.89,1.89,0,0,1,.16-.81,1.71,1.71,0,0,1,.44-.62,1.94,1.94,0,0,1,.67-.39,2.54,2.54,0,0,1,.83-.14M43,69.82a1.92,1.92,0,0,0,.16-.81,2,2,0,0,0-.17-.86A2.3,2.3,0,0,0,41.56,67a4.12,4.12,0,0,0-1.32-.19H38.56l-.51,0a2.19,2.19,0,0,1-.51-.1.92.92,0,0,1-.38-.26A.63.63,0,0,1,37,66a.78.78,0,0,1,.23-.57,1.41,1.41,0,0,1,.52-.35,3.36,3.36,0,0,0,1.54.35,3.59,3.59,0,0,0,1.14-.19,2.91,2.91,0,0,0,.93-.52,2.38,2.38,0,0,0,.63-.83,2.67,2.67,0,0,0,.23-1.12,2.59,2.59,0,0,0-.16-.95,2.63,2.63,0,0,0-.45-.76.94.94,0,0,1,.35-.59,1.11,1.11,0,0,1,.69-.21l.14,0H43v-.7h-.16l-.15,0a1.86,1.86,0,0,0-1,.28,1.39,1.39,0,0,0-.59.74A3.28,3.28,0,0,0,39.3,60a3.58,3.58,0,0,0-1.14.18,2.8,2.8,0,0,0-.92.54,2.63,2.63,0,0,0-.62.85,2.73,2.73,0,0,0-.22,1.12,2.59,2.59,0,0,0,.21,1.07,2.75,2.75,0,0,0,.54.8,2,2,0,0,0-.66.6,1.47,1.47,0,0,0-.25.85,1.23,1.23,0,0,0,.29.77,1.44,1.44,0,0,0,.65.48,2,2,0,0,0-.81.73,1.92,1.92,0,0,0-.31,1,2.14,2.14,0,0,0,.14.79,2,2,0,0,0,.4.6,2.83,2.83,0,0,0,1.25.69,6.5,6.5,0,0,0,1.63.2,7.5,7.5,0,0,0,1.75-.2,2.64,2.64,0,0,0,1.32-.71,2.14,2.14,0,0,0,.43-.62"/><path id="Fill-13" d="M45.88,61A2.44,2.44,0,0,1,47,60.79,2.29,2.29,0,0,1,48,61a2.23,2.23,0,0,1,.78.61,2.76,2.76,0,0,1,.49.87,3.41,3.41,0,0,1,.18,1h-5a3.3,3.3,0,0,1,.19-1,2.7,2.7,0,0,1,.51-.87,2.41,2.41,0,0,1,.8-.6m3.51.15a3.11,3.11,0,0,0-1-.82A3,3,0,0,0,47,60a3.16,3.16,0,0,0-2.64,1.33,3.45,3.45,0,0,0-.6,1.31,6,6,0,0,0-.16,1.42,4.9,4.9,0,0,0,.26,1.61,3.85,3.85,0,0,0,.73,1.3,3.5,3.5,0,0,0,1,.78,3.19,3.19,0,0,0,1.44.31,3.1,3.1,0,0,0,1.23-.24,3.21,3.21,0,0,0,1-.65,3.27,3.27,0,0,0,.55-.72,2.68,2.68,0,0,0,.32-.9v0h-.85v0a2,2,0,0,1-.58,1.07,2.2,2.2,0,0,1-1.66.66,2.54,2.54,0,0,1-1.08-.21,2.33,2.33,0,0,1-.77-.59,3.37,3.37,0,0,1-.57-1,4.07,4.07,0,0,1-.22-1.23h5.88v-.52A4.3,4.3,0,0,0,50,62.35a3.7,3.7,0,0,0-.65-1.19"/><path id="Fill-15" d="M57.94,67.3a2.35,2.35,0,0,1-1-.19,2.27,2.27,0,0,1-.72-.48,2.75,2.75,0,0,1-.69-1.18,6.16,6.16,0,0,1,0-2.79,2.71,2.71,0,0,1,.69-1.17A2.14,2.14,0,0,1,57,61a2.35,2.35,0,0,1,1-.18,2.38,2.38,0,0,1,1,.18,2.2,2.2,0,0,1,.71.49,2.53,2.53,0,0,1,.69,1.17,5.77,5.77,0,0,1,.17,1.4,5.63,5.63,0,0,1-.17,1.39,2.58,2.58,0,0,1-.68,1.18,2.52,2.52,0,0,1-.72.48,2.38,2.38,0,0,1-1,.19M60.2,61a3.39,3.39,0,0,0-1-.66A3.09,3.09,0,0,0,57.94,60a3.18,3.18,0,0,0-1.3.26,3.37,3.37,0,0,0-1.82,2,5.87,5.87,0,0,0-.25,1.75,5.8,5.8,0,0,0,.25,1.74,3.47,3.47,0,0,0,.85,1.37,3.77,3.77,0,0,0,1,.66,3.18,3.18,0,0,0,1.3.26,3.09,3.09,0,0,0,1.29-.26,3.6,3.6,0,0,0,1-.66,3.36,3.36,0,0,0,.85-1.37,5.5,5.5,0,0,0,.25-1.74,5.56,5.56,0,0,0-.25-1.75A3.39,3.39,0,0,0,60.2,61"/><path id="Fill-17" d="M63.49,67.89h.81V61h2.42v-.74H64.3V58.94a1.27,1.27,0,0,1,1.44-1.45,5.53,5.53,0,0,1,.61,0l.5.06h0v-.73h0c-.19,0-.38-.06-.56-.07a5.92,5.92,0,0,0-.62,0,2.52,2.52,0,0,0-1,.16,1.87,1.87,0,0,0-1.1,1.17,2.48,2.48,0,0,0-.14.82v1.32H62V61h1.54Z"/><polygon id="Fill-19" points="77.36 57.04 69.57 57.04 69.57 57.85 73.04 57.85 73.04 67.89 73.88 67.89 73.88 57.85 77.36 57.85 77.36 57.04"/><path id="Fill-21" d="M78.8,61a2.42,2.42,0,0,1,1.06-.22,2.31,2.31,0,0,1,1,.23,2.23,2.23,0,0,1,.78.61,2.76,2.76,0,0,1,.49.87,3.41,3.41,0,0,1,.18,1h-5a3.29,3.29,0,0,1,.18-1,2.92,2.92,0,0,1,.52-.87,2.31,2.31,0,0,1,.8-.6m3.51.15a3.32,3.32,0,0,0-1-.82A3,3,0,0,0,79.86,60a3.14,3.14,0,0,0-2.63,1.33,3.64,3.64,0,0,0-.61,1.31,6.57,6.57,0,0,0-.15,1.42,4.9,4.9,0,0,0,.26,1.61,3.68,3.68,0,0,0,.73,1.3,3.46,3.46,0,0,0,1,.78,3.26,3.26,0,0,0,1.45.31,3.14,3.14,0,0,0,1.23-.24,3.24,3.24,0,0,0,1.54-1.37,2.47,2.47,0,0,0,.31-.9v0h-.85v0a2,2,0,0,1-.58,1.07,2.21,2.21,0,0,1-1.66.66,2.54,2.54,0,0,1-1.08-.21,2.23,2.23,0,0,1-.77-.59,3.17,3.17,0,0,1-.57-1,3.78,3.78,0,0,1-.22-1.23h5.88v-.52A4.3,4.3,0,0,0,83,62.35a3.7,3.7,0,0,0-.65-1.19"/><path id="Fill-23" d="M90,65.46a2.27,2.27,0,0,1-.71,1.3,2,2,0,0,1-1.45.54,2.24,2.24,0,0,1-1.69-.64,2.44,2.44,0,0,1-.68-1.19,5.93,5.93,0,0,1,0-2.82,2.52,2.52,0,0,1,.67-1.18,2.44,2.44,0,0,1,.73-.48,2.63,2.63,0,0,1,1-.17,2.1,2.1,0,0,1,1.44.51,2.16,2.16,0,0,1,.71,1.3v0h.85v0a3.35,3.35,0,0,0-.32-1.06,3,3,0,0,0-.64-.82,2.83,2.83,0,0,0-.91-.53,3.57,3.57,0,0,0-2.43.07,3.33,3.33,0,0,0-1,.66,3.23,3.23,0,0,0-.85,1.37,6.5,6.5,0,0,0,0,3.5,3.36,3.36,0,0,0,.85,1.37,3,3,0,0,0,1,.65,3.22,3.22,0,0,0,1.31.26,3.14,3.14,0,0,0,1.12-.2,3,3,0,0,0,.92-.55,3.15,3.15,0,0,0,.65-.84,3.09,3.09,0,0,0,.33-1v0H90Z"/><path id="Fill-25" d="M95.83,60a2.84,2.84,0,0,0-.81.12,2.92,2.92,0,0,0-.75.32,3.38,3.38,0,0,0-.63.5,2.63,2.63,0,0,0-.39.57V56.85h-.81v11h.81V64.06a6,6,0,0,1,.13-1.2,3.27,3.27,0,0,1,.43-1,2.21,2.21,0,0,1,.78-.74,2.46,2.46,0,0,1,1.19-.28,1.88,1.88,0,0,1,1.51.55,2.37,2.37,0,0,1,.46,1.55v5h.81v-5a3,3,0,0,0-.69-2.06,2.64,2.64,0,0,0-2-.75"/><path id="Fill-27" d="M103.89,60a2.77,2.77,0,0,0-.8.12,3,3,0,0,0-.76.32,2.72,2.72,0,0,0-.62.5,2,2,0,0,0-.4.57l-.09-1.29v0h-.72v7.66h.81V64.06a5.23,5.23,0,0,1,.14-1.19,3.11,3.11,0,0,1,.42-1,2.31,2.31,0,0,1,.79-.73,2.41,2.41,0,0,1,1.19-.28,1.88,1.88,0,0,1,1.5.53,2.28,2.28,0,0,1,.46,1.54v5h.82v-5a3,3,0,0,0-.69-2.06,2.66,2.66,0,0,0-2-.75"/><path id="Fill-29" d="M111.44,67.3a2.38,2.38,0,0,1-1-.19,2.52,2.52,0,0,1-.72-.48,2.63,2.63,0,0,1-.68-1.18,5.81,5.81,0,0,1,0-2.79,2.6,2.6,0,0,1,.68-1.17,2.36,2.36,0,0,1,.72-.49,2.38,2.38,0,0,1,1-.18,2.35,2.35,0,0,1,1,.18,2.24,2.24,0,0,1,.72.49,2.6,2.6,0,0,1,.68,1.17,5.32,5.32,0,0,1,.17,1.4,5.19,5.19,0,0,1-.17,1.39,2.58,2.58,0,0,1-.68,1.18,2.39,2.39,0,0,1-.72.48,2.35,2.35,0,0,1-1,.19M113.7,61a3.34,3.34,0,0,0-1-.66,3.18,3.18,0,0,0-1.3-.26,3.09,3.09,0,0,0-1.29.26,3.26,3.26,0,0,0-1,.66,3.53,3.53,0,0,0-.86,1.36,5.88,5.88,0,0,0-.24,1.75,5.81,5.81,0,0,0,.24,1.74,3.49,3.49,0,0,0,.86,1.37,3.45,3.45,0,0,0,1,.66,3.09,3.09,0,0,0,1.29.26,3.18,3.18,0,0,0,1.3-.26,3.55,3.55,0,0,0,1-.66,3.38,3.38,0,0,0,.86-1.37,5.81,5.81,0,0,0,.24-1.74,5.88,5.88,0,0,0-.24-1.75A3.41,3.41,0,0,0,113.7,61"/><path id="Fill-31" d="M118.39,67.2H118a.69.69,0,0,1-.63-.24,1.28,1.28,0,0,1-.15-.65V56.85h-.81v9.49a1.69,1.69,0,0,0,.4,1.25A1.61,1.61,0,0,0,118,68a2.37,2.37,0,0,0,.41,0l.29-.06h0v-.71h0l-.3,0"/><path id="Fill-33" d="M122.66,67.3a2.42,2.42,0,0,1-1-.19,2.34,2.34,0,0,1-.71-.48,2.56,2.56,0,0,1-.69-1.18,5.81,5.81,0,0,1,0-2.79,2.53,2.53,0,0,1,.69-1.17,2.2,2.2,0,0,1,.71-.49,2.42,2.42,0,0,1,1-.18,2.35,2.35,0,0,1,1,.18,2.14,2.14,0,0,1,.72.49,2.53,2.53,0,0,1,.69,1.17,5.77,5.77,0,0,1,.17,1.4,5.63,5.63,0,0,1-.17,1.39,2.51,2.51,0,0,1-.69,1.18,2.27,2.27,0,0,1-.72.48,2.35,2.35,0,0,1-1,.19M124.93,61a3.53,3.53,0,0,0-1-.66,3.36,3.36,0,0,0-2.59,0,3.37,3.37,0,0,0-1.82,2,5.56,5.56,0,0,0-.25,1.75,5.5,5.5,0,0,0,.25,1.74,3.36,3.36,0,0,0,.85,1.37,3.6,3.6,0,0,0,1,.66,3.36,3.36,0,0,0,2.59,0,3.77,3.77,0,0,0,1-.66,3.36,3.36,0,0,0,.85-1.37,5.8,5.8,0,0,0,.25-1.74,5.87,5.87,0,0,0-.25-1.75,3.39,3.39,0,0,0-.85-1.36"/><path id="Fill-35" d="M131.13,70.59l-.62,0-.61,0a3.1,3.1,0,0,1-.61-.09,3,3,0,0,1-.58-.18,1.48,1.48,0,0,1-.47-.31,1.24,1.24,0,0,1-.4-.94,1.41,1.41,0,0,1,.38-1,1.86,1.86,0,0,1,.87-.51h2a2.51,2.51,0,0,1,1.85.56,1.31,1.31,0,0,1,.26.4,1.19,1.19,0,0,1,.1.53,1.33,1.33,0,0,1-.11.54,1.5,1.5,0,0,1-.28.4,1.71,1.71,0,0,1-.51.35,2.72,2.72,0,0,1-.63.2,4,4,0,0,1-.67.09m-.82-9.83a2.54,2.54,0,0,1,.83.14,1.87,1.87,0,0,1,1.12,1,2.13,2.13,0,0,1,0,1.62,1.86,1.86,0,0,1-.45.61,2,2,0,0,1-.67.38,3,3,0,0,1-1.67,0,1.87,1.87,0,0,1-.66-.38,1.73,1.73,0,0,1-.45-.61,2.09,2.09,0,0,1-.15-.81,2.05,2.05,0,0,1,.15-.81,1.87,1.87,0,0,1,1.12-1,2.45,2.45,0,0,1,.83-.14m3.22,6.76a2.26,2.26,0,0,0-1-.57,4.17,4.17,0,0,0-1.32-.19h-1.68l-.52,0a2.3,2.3,0,0,1-.51-.1.89.89,0,0,1-.37-.26A.63.63,0,0,1,128,66a.81.81,0,0,1,.22-.57,1.44,1.44,0,0,1,.53-.35,3.33,3.33,0,0,0,1.54.35,3.59,3.59,0,0,0,1.14-.19,3,3,0,0,0,.93-.52,2.5,2.5,0,0,0,.63-.83,2.67,2.67,0,0,0,.23-1.12,2.82,2.82,0,0,0-.16-.95,2.63,2.63,0,0,0-.45-.76.9.9,0,0,1,.35-.59,1.08,1.08,0,0,1,.68-.21l.14,0H134v-.7h-.17l-.15,0a1.83,1.83,0,0,0-1,.28,1.34,1.34,0,0,0-.59.74,3.3,3.3,0,0,0-1.79-.5,3.54,3.54,0,0,0-1.14.18,2.84,2.84,0,0,0-.93.54,2.63,2.63,0,0,0-.84,2,2.59,2.59,0,0,0,.21,1.07,2.78,2.78,0,0,0,.55.8,2.07,2.07,0,0,0-.67.6,1.47,1.47,0,0,0-.24.85,1.23,1.23,0,0,0,.29.77,1.47,1.47,0,0,0,.64.48,2,2,0,0,0-.8.73,1.92,1.92,0,0,0-.31,1,1.86,1.86,0,0,0,.54,1.39,2.78,2.78,0,0,0,1.25.69,6.5,6.5,0,0,0,1.63.2,7.63,7.63,0,0,0,1.75-.2,2.68,2.68,0,0,0,1.32-.71,2,2,0,0,0,.59-1.43,2,2,0,0,0-.17-.86,2.4,2.4,0,0,0-.45-.63"/><path id="Fill-37" d="M140.69,60.23,138.12,67l-2.68-6.71h-.88L137.72,68l-.49,1.24a2.26,2.26,0,0,1-.52.8,1.16,1.16,0,0,1-.86.31,3.82,3.82,0,0,1-.61,0l-.32,0h0v.69h0a1.23,1.23,0,0,0,.25.08,2.16,2.16,0,0,0,.32,0h.41a2,2,0,0,0,1.3-.41,2.65,2.65,0,0,0,.8-1.16l3.58-9.24v0Z"/><path id="Fill-39" d="M14.14,44.76V35.08a3.67,3.67,0,0,0-.55-2.14,2.38,2.38,0,0,0-2.07-.78,2.67,2.67,0,0,0-1.48.41,3.17,3.17,0,0,0-1,1A5,5,0,0,0,8.44,35a6.52,6.52,0,0,0-.18,1.49v8.26H4.45V23H8.26v7.75a4.46,4.46,0,0,1,1.89-1.53,5.94,5.94,0,0,1,2.43-.52,5.71,5.71,0,0,1,2.27.42,4.79,4.79,0,0,1,1.68,1.17,5.21,5.21,0,0,1,1,1.78A6.69,6.69,0,0,1,18,34.3V44.76Z" style="fill:#231f1f"/><path id="Fill-41" d="M30.52,37.8l-4,.3a3,3,0,0,0-1.59.57,1.87,1.87,0,0,0,0,2.91,2.49,2.49,0,0,0,1.57.52,4.49,4.49,0,0,0,2.92-.91,3.27,3.27,0,0,0,1.13-2.67Zm5.08,6.78a7.62,7.62,0,0,1-.83.31,3.94,3.94,0,0,1-1.05.11,2.56,2.56,0,0,1-1.92-.67A2.5,2.5,0,0,1,31,42.8a4.5,4.5,0,0,1-1.82,1.66,6.23,6.23,0,0,1-3,.69,7,7,0,0,1-2.5-.41,5.33,5.33,0,0,1-1.78-1.08,4.65,4.65,0,0,1-1.08-1.57,4.89,4.89,0,0,1-.37-1.85,4.51,4.51,0,0,1,.42-2,4.44,4.44,0,0,1,1.14-1.51,5.29,5.29,0,0,1,1.7-1,7.83,7.83,0,0,1,2.11-.43L30.52,35V34A2.79,2.79,0,0,0,30,32.24a2.64,2.64,0,0,0-2.14-.68,3.37,3.37,0,0,0-2.09.57,2.11,2.11,0,0,0-.81,1.66H21.26a5.48,5.48,0,0,1,.62-2.29,4.69,4.69,0,0,1,1.42-1.58,6.13,6.13,0,0,1,2-.92,9.9,9.9,0,0,1,2.5-.3,9,9,0,0,1,3.64.7,4.35,4.35,0,0,1,2.3,2.49,5.63,5.63,0,0,1,.38,1.57c.05.54.07,1.07.07,1.6v5.81a1.19,1.19,0,0,0,.2.77.88.88,0,0,0,.69.22,1.21,1.21,0,0,0,.33,0,.31.31,0,0,0,.15,0Z" style="fill:#231f1f"/><path id="Fill-43" d="M50.93,39.21A7.17,7.17,0,0,1,50.56,41a5.46,5.46,0,0,1-.85,1.58,6.89,6.89,0,0,1-2.21,1.74,6.75,6.75,0,0,1-3.21.73,7.25,7.25,0,0,1-5.52-2.47,7.62,7.62,0,0,1-1.31-2.57,12.1,12.1,0,0,1,0-6.32,7.57,7.57,0,0,1,1.31-2.56A7.1,7.1,0,0,1,41,29.43a7,7,0,0,1,3.26-.73,6.87,6.87,0,0,1,3.21.72,6.78,6.78,0,0,1,2.21,1.75,5.34,5.34,0,0,1,.85,1.58,7.09,7.09,0,0,1,.37,1.82H47.18a3.17,3.17,0,0,0-.15-.78,3.34,3.34,0,0,0-.31-.66,2.5,2.5,0,0,0-.94-.85,3.54,3.54,0,0,0-2.85-.06,3.09,3.09,0,0,0-1,.7,3.4,3.4,0,0,0-.88,1.8,13,13,0,0,0-.18,2.17A12.47,12.47,0,0,0,41.09,39a3.4,3.4,0,0,0,.88,1.8,3.47,3.47,0,0,0,1,.71,3,3,0,0,0,1.36.28,3.12,3.12,0,0,0,1.49-.33,2.57,2.57,0,0,0,.94-.84,3.06,3.06,0,0,0,.46-1.45Z" style="fill:#231f1f"/><polygon id="Fill-45" points="64.47 44.76 60.02 37.92 57.49 40.63 57.49 44.76 53.69 44.76 53.69 23 57.49 23 57.49 35.45 63.49 29.09 68.28 29.09 62.61 35.15 68.89 44.76 64.47 44.76" style="fill:#231f1f"/><path id="Fill-47" d="M79.64,35.35a4.06,4.06,0,0,0-1-2.74,2.69,2.69,0,0,0-1-.66,3.8,3.8,0,0,0-1.42-.24A3.5,3.5,0,0,0,74.7,32a3.09,3.09,0,0,0-1.1.88A3.44,3.44,0,0,0,73,34a5.17,5.17,0,0,0-.21,1.35ZM83.44,37a2.77,2.77,0,0,0,0,.39v.67H72.81a5.12,5.12,0,0,0,.29,1.71A3.26,3.26,0,0,0,74,41.17a4.22,4.22,0,0,0,1,.68,3,3,0,0,0,1.35.28A4.69,4.69,0,0,0,77.67,42a2.37,2.37,0,0,0,1-.59,2.81,2.81,0,0,0,.76-1.33h3.66a4.37,4.37,0,0,1-.47,1.53A7.73,7.73,0,0,1,81.71,43a5.85,5.85,0,0,1-2.41,1.69,8.46,8.46,0,0,1-2.92.51,7.07,7.07,0,0,1-2.85-.53,7.19,7.19,0,0,1-4-4.14A9.56,9.56,0,0,1,68.94,37a10.5,10.5,0,0,1,.57-3.51,7.05,7.05,0,0,1,1.72-2.76,6.61,6.61,0,0,1,2.14-1.44,7.42,7.42,0,0,1,2.92-.54,7.7,7.7,0,0,1,3.28.7,6,6,0,0,1,2.5,2.19,6.78,6.78,0,0,1,1.13,2.63A16.09,16.09,0,0,1,83.44,37Z" style="fill:#231f1f"/><path id="Fill-49" d="M95.5,32.58a6.27,6.27,0,0,0-1.31-.15,3.68,3.68,0,0,0-3,1.27,4.83,4.83,0,0,0-1,3.16v7.9H86.27V29.09H89.5l.33,2.35a3.58,3.58,0,0,1,1.82-2,6.12,6.12,0,0,1,2.66-.6A8,8,0,0,1,95.5,29Z" style="fill:#231f1f"/><polygon id="Fill-51" points="106.31 36.56 106.31 44.76 102.34 44.76 102.34 36.56 94.85 23.39 99.12 23.39 104.45 32.61 109.78 23.39 113.86 23.39 106.31 36.56" style="fill:#231f1f"/><path id="Fill-53" d="M122.39,36.92a10.81,10.81,0,0,0-.21-2.15,3.66,3.66,0,0,0-.92-1.79,3.11,3.11,0,0,0-1-.71,3.55,3.55,0,0,0-2.81,0,3.11,3.11,0,0,0-1,.71,3.66,3.66,0,0,0-.92,1.79,11.16,11.16,0,0,0,0,4.31,3.7,3.7,0,0,0,.92,1.79,3.45,3.45,0,0,0,1,.71,3.67,3.67,0,0,0,2.81,0,3.45,3.45,0,0,0,1-.71,3.7,3.7,0,0,0,.92-1.79,10.91,10.91,0,0,0,.21-2.16m3.87,0a9.67,9.67,0,0,1-.49,3.33,8.86,8.86,0,0,1-1.37,2.46,6.84,6.84,0,0,1-2.27,1.71,7.71,7.71,0,0,1-6.55,0,7,7,0,0,1-2.27-1.71,8.61,8.61,0,0,1-1.37-2.46,9.92,9.92,0,0,1-.49-3.33,10,10,0,0,1,.49-3.33,8.56,8.56,0,0,1,1.37-2.45,6.83,6.83,0,0,1,2.27-1.72,7.81,7.81,0,0,1,6.55,0,6.73,6.73,0,0,1,2.27,1.72,8.81,8.81,0,0,1,1.37,2.45,9.75,9.75,0,0,1,.49,3.33" style="fill:#231f1f"/><path id="Fill-55" d="M139.25,44.76l-.27-2a4.15,4.15,0,0,1-1.8,1.79,5.75,5.75,0,0,1-2.74.65,6.06,6.06,0,0,1-2.28-.41,4.88,4.88,0,0,1-1.72-1.14,5,5,0,0,1-1.1-1.77,6.59,6.59,0,0,1-.38-2.29V29.09h3.81V38.7a3.54,3.54,0,0,0,.61,2.19,2.51,2.51,0,0,0,2.13.79,2.64,2.64,0,0,0,1.14-.22,3.26,3.26,0,0,0,1.74-2.16,8.4,8.4,0,0,0,.22-1.93V29.09h3.81V44.76Z" style="fill:#231f1f"/></svg>