<svg xmlns="http://www.w3.org/2000/svg" xmlns:xlink="http://www.w3.org/1999/xlink" width="18" height="13" viewBox="0 0 18 13">
    <defs>
        <path id="a" d="M0 1c0-.552.445-1 .993-1h16.014c.548 0 .993.445.993 1v.1c0 .552-.445 1-.993 1H.993A.995.995 0 0 1 0 1.1V1zm0 5.25c0-.552.445-1 .993-1h16.014c.548 0 .993.445.993 1v.1c0 .552-.445 1-.993 1H.993a.995.995 0 0 1-.993-1v-.1zm0 5.25c0-.552.445-1 .993-1h16.014c.548 0 .993.445.993 1v.1c0 .552-.445 1-.993 1H.993a.995.995 0 0 1-.993-1v-.1z"/>
    </defs>
    <g fill="none" fill-rule="evenodd">
        <use fill="#231F1F" xlink:href="#a"/>
        <path stroke="#231F1F" d="M.5 1v.1c0 .278.22.5.493.5h16.014a.497.497 0 0 0 .493-.5V1c0-.278-.22-.5-.493-.5H.993A.497.497 0 0 0 .5 1zm0 5.25v.1c0 .278.22.5.493.5h16.014a.497.497 0 0 0 .493-.5v-.1c0-.278-.22-.5-.493-.5H.993a.497.497 0 0 0-.493.5zm0 5.25v.1c0 .278.22.5.493.5h16.014a.497.497 0 0 0 .493-.5v-.1c0-.278-.22-.5-.493-.5H.993a.497.497 0 0 0-.493.5z"/>
    </g>
</svg>
