<svg id="Layer_1" data-name="Layer 1" xmlns="http://www.w3.org/2000/svg" xmlns:xlink="http://www.w3.org/1999/xlink" viewBox="0 0 250 250"><defs><mask id="mask" x="9.64" y="15" width="230.71" height="220" maskUnits="userSpaceOnUse"><g id="b"><path id="a" d="M9.65,15h230.7V235H9.65Z" style="fill:#fff"/></g></mask></defs><title>icon-favourite</title><g style="mask:url(#mask)"><path fill="#E40015" d="M192.84,235a4.74,4.74,0,0,1-1.92-.27L125,210.55,58.81,234.72a5.31,5.31,0,0,1-4.94-.82,5.84,5.84,0,0,1-2.19-4.68l2.74-70.3L10.75,103.69a5.32,5.32,0,0,1-.83-4.93,5.79,5.79,0,0,1,3.57-3.58L81.33,76,120.6,17.47A6.09,6.09,0,0,1,125,15a4.66,4.66,0,0,1,4.4,2.47L168.67,76l67.84,19.22a5.75,5.75,0,0,1,3.57,3.58,5.34,5.34,0,0,1-.83,4.94l-43.67,55.48,2.75,70.31a5,5,0,0,1-5.49,5.49Z" style="fill:#E40015"/></g></svg>