<svg id="Layer_1" data-name="Layer 1" xmlns="http://www.w3.org/2000/svg" viewBox="0 0 250 250"><title>icon-trash</title><path d="M207,43H164.5V36a20,20,0,0,0-20-20h-53a20,20,0,0,0-20,20v7H29a10,10,0,0,0,0,20H40.5V209a25,25,0,0,0,25,25h105a25,25,0,0,0,25-25V63H207a10,10,0,0,0,0-20ZM91.5,36h53v7h-53Zm84,173a5,5,0,0,1-5,5H65.5a5,5,0,0,1-5-5V63h115Z" style="fill:#444"/><path d="M83,88A10,10,0,0,0,73,98v81a10,10,0,0,0,20,0V98A10,10,0,0,0,83,88Z" style="fill:#444"/><path d="M118,88a10,10,0,0,0-10,10v81a10,10,0,0,0,20,0V98A10,10,0,0,0,118,88Z" style="fill:#444"/><path d="M153,88a10,10,0,0,0-10,10v81a10,10,0,0,0,20,0V98A10,10,0,0,0,153,88Z" style="fill:#444"/></svg>